<svg width="247" height="165" viewBox="0 0 247 165" fill="none" xmlns="http://www.w3.org/2000/svg">
<g clip-path="url(#clip0_17494_54565)">
<path d="M88.5993 94.9582C97.064 79.9905 113.211 68.4979 130.303 69.605C117.695 83.3867 110.343 101.207 109.548 119.913C109.267 127.128 109.703 135.183 104.937 140.585C101.971 143.947 97.4385 145.575 92.9818 145.917C88.5249 146.258 84.0691 145.449 79.6717 144.643L78.6051 144.972C78.199 127.76 80.1345 109.926 88.5993 94.9582Z" fill="#F0F0F0"/>
<path d="M130.329 69.9655C117.689 76.0818 106.911 86.2967 100.295 98.7546C98.8649 101.448 97.6471 104.305 97.1159 107.326C96.5844 110.349 96.9556 113.226 97.9827 116.097C98.9216 118.721 100.184 121.296 100.472 124.105C100.776 127.064 99.6922 129.832 97.7419 132.028C95.3557 134.716 92.1511 136.381 88.961 137.9C85.419 139.587 81.7134 141.283 79.2046 144.43C78.9007 144.812 78.3297 144.315 78.6332 143.935C82.998 138.458 90.4694 137.428 95.6504 133.016C98.068 130.958 99.883 128.154 99.7685 124.869C99.6683 121.997 98.3684 119.34 97.3949 116.691C96.3727 113.91 95.8629 111.113 96.2295 108.147C96.6045 105.114 97.7138 102.203 99.0694 99.4844C102.127 93.3539 106.311 87.7257 111.103 82.8604C116.612 77.268 123.031 72.6639 130.084 69.2474C130.521 69.0361 130.763 69.7556 130.329 69.9655Z" fill="white"/>
<path d="M102.233 94.5914C100.295 93.1672 98.924 91.097 98.3646 88.7505C97.8052 86.404 98.0938 83.9341 99.1788 81.7818C99.3999 81.347 100.082 81.6719 99.861 82.1072C98.8469 84.1096 98.5783 86.4103 99.1037 88.5943C99.629 90.7783 100.914 92.7015 102.726 94.0169C103.119 94.3033 102.624 94.876 102.233 94.5914Z" fill="white"/>
<path d="M97.3339 114.829C102.189 114.116 106.599 111.59 109.684 107.754C109.989 107.373 110.56 107.87 110.255 108.249C107.038 112.235 102.443 114.855 97.3891 115.586C96.9073 115.655 96.8547 114.898 97.3339 114.829Z" fill="white"/>
<path d="M116.986 78.2028C117.622 78.9108 118.422 79.4492 119.316 79.7694C120.21 80.0897 121.168 80.1818 122.106 80.0375C122.587 79.9621 122.639 80.7194 122.162 80.7943C121.125 80.9489 120.066 80.8458 119.078 80.4942C118.09 80.1426 117.202 79.5531 116.493 78.7772C116.42 78.7097 116.375 78.6168 116.368 78.5174C116.361 78.418 116.392 78.3195 116.454 78.242C116.52 78.1663 116.612 78.1197 116.712 78.1124C116.812 78.105 116.91 78.1375 116.986 78.2028Z" fill="white"/>
<path d="M164.315 116.822C164.016 116.878 163.717 116.934 163.416 116.995C159.402 117.765 155.458 118.861 151.621 120.273C151.322 120.377 151.022 120.487 150.727 120.6C141.519 124.1 133.038 129.289 125.714 135.901C122.802 138.535 120.094 141.388 117.612 144.435C114.186 148.643 110.804 153.48 106.326 156.223C105.862 156.515 105.381 156.777 104.884 157.009L79.0901 146.254C79.0437 146.2 78.9946 146.152 78.9479 146.098L77.8984 145.716C78.0155 145.55 78.1404 145.38 78.2575 145.214C78.325 145.117 78.3982 145.023 78.4657 144.926C78.5126 144.863 78.5597 144.799 78.5983 144.739C78.6138 144.718 78.6296 144.697 78.6427 144.681C78.6813 144.621 78.7236 144.569 78.7597 144.515C79.4556 143.564 80.1593 142.616 80.8709 141.672C80.8733 141.666 80.8733 141.666 80.8815 141.663C86.3216 134.481 92.406 127.692 99.322 122.048C99.5301 121.878 99.7404 121.702 99.9603 121.537C103.092 119.01 106.423 116.745 109.922 114.764C111.841 113.685 113.814 112.705 115.831 111.826C121.049 109.567 126.589 108.147 132.246 107.618C143.523 106.566 155.01 109.15 163.66 116.272C163.881 116.454 164.096 116.634 164.315 116.822Z" fill="#F0F0F0"/>
<path d="M164.122 117.128C150.366 114.363 135.643 115.996 122.898 121.939C120.143 123.224 117.459 124.768 115.225 126.859C112.991 128.951 111.564 131.473 110.664 134.386C109.842 137.05 109.308 139.87 107.856 142.287C106.325 144.833 103.803 146.388 100.93 146.961C97.4148 147.663 93.8586 147.053 90.4016 146.335C86.5633 145.538 82.589 144.65 78.7004 145.645C78.2293 145.765 78.0707 145.023 78.5411 144.903C85.3066 143.172 91.8888 146.871 98.6681 146.484C101.831 146.303 104.96 145.163 106.836 142.471C108.476 140.117 109.03 137.209 109.839 134.505C110.689 131.666 111.957 129.124 114.026 126.978C116.142 124.783 118.772 123.13 121.482 121.78C127.595 118.735 134.307 116.773 141.048 115.789C148.796 114.658 156.679 114.867 164.357 116.407C164.832 116.503 164.594 117.223 164.122 117.128Z" fill="white"/>
<path d="M126.932 119.787C126.238 117.477 126.384 114.995 127.342 112.783C128.301 110.571 130.011 108.773 132.166 107.711C132.603 107.498 132.954 108.17 132.516 108.384C130.507 109.369 128.915 111.043 128.026 113.105C127.137 115.167 127.011 117.48 127.67 119.627C127.813 120.094 127.074 120.251 126.932 119.787Z" fill="white"/>
<path d="M110.901 132.981C115.205 135.35 120.239 136.001 125 134.805C125.472 134.686 125.63 135.428 125.159 135.547C120.203 136.782 114.966 136.094 110.492 133.619C110.066 133.382 110.477 132.746 110.901 132.981Z" fill="white"/>
<path d="M148.533 115.629C148.617 116.579 148.933 117.493 149.455 118.29C149.977 119.086 150.687 119.74 151.522 120.193C151.951 120.423 151.539 121.059 151.113 120.83C150.193 120.326 149.409 119.603 148.831 118.724C148.252 117.846 147.897 116.838 147.795 115.789C147.778 115.691 147.798 115.59 147.851 115.506C147.905 115.422 147.989 115.362 148.085 115.338C148.183 115.318 148.285 115.336 148.369 115.391C148.453 115.445 148.512 115.531 148.533 115.629Z" fill="white"/>
<path d="M115.176 134.566C111.563 117.009 107.048 111.155 107.048 111.155L105.323 109.81L103.248 108.191L103.258 107.982L102.766 107.814L102.65 107.724L102.461 107.578L102.431 107.611L102.366 107.678L92.9789 104.47L81.0694 100.404L75.5545 93.1986C74.6563 92.0251 73.5 91.0766 72.1761 90.4275C70.8523 89.7784 69.3968 89.4463 67.9239 89.4573L50.3112 89.5883C47.9298 89.606 45.6411 90.5185 43.895 92.1465L32.3185 102.94L14.28 111.6L14.2496 111.569L14.0602 111.705L11.273 113.045L11.3881 113.647L9.66301 114.898C9.66301 114.898 5.14748 120.345 1.53504 136.682C0.616079 140.838 0.163732 149.755 0.000458832 160.744C-0.00774236 161.299 0.0940717 161.851 0.299978 162.367C0.505885 162.883 0.811778 163.353 1.19987 163.749C1.58796 164.145 2.05051 164.46 2.56062 164.674C3.07073 164.889 3.61823 165 4.17127 165H100.518L112.544 165C113.096 165 113.643 164.889 114.153 164.674C114.663 164.46 115.125 164.146 115.513 163.75C115.901 163.355 116.207 162.886 116.414 162.37C116.62 161.855 116.722 161.303 116.715 160.748C116.555 148.791 116.103 139.074 115.176 134.566Z" fill="#3F3D56"/>
<path d="M127.54 15.3105C123.791 15.3105 120.196 16.8073 117.546 19.4717C114.895 22.136 113.406 25.7495 113.406 29.5175C113.406 33.2854 114.895 36.8989 117.546 39.5633C120.196 42.2276 123.791 43.7244 127.54 43.7244H232.869C236.617 43.7244 240.212 42.2276 242.863 39.5633C245.513 36.8989 247.003 33.2854 247.003 29.5175C247.003 25.7495 245.513 22.136 242.863 19.4717C240.212 16.8073 236.617 15.3105 232.869 15.3105H127.54Z" fill="#E5E5E5"/>
<path d="M127.539 18.1875C124.549 18.1875 121.682 19.3814 119.567 21.5065C117.453 23.6316 116.266 26.5139 116.266 29.5192C116.266 32.5246 117.453 35.4068 119.567 37.5319C121.682 39.657 124.549 40.8509 127.539 40.8509H232.868C235.858 40.8509 238.725 39.657 240.839 37.5319C242.953 35.4068 244.141 32.5246 244.141 29.5192C244.141 26.5139 242.953 23.6316 240.839 21.5065C238.725 19.3814 235.858 18.1875 232.868 18.1875H127.539Z" fill="white"/>
<path d="M61.8868 82.806C74.6304 82.806 84.9612 72.4216 84.9612 59.612C84.9612 46.8023 74.6304 36.418 61.8868 36.418C49.1432 36.418 38.8125 46.8023 38.8125 59.612C38.8125 72.4216 49.1432 82.806 61.8868 82.806Z" fill="#9E616A"/>
<path d="M55.9824 81.6704C55.8838 81.4523 55.7855 81.2333 55.6875 81.0137C55.7253 81.0149 55.7627 81.0203 55.8005 81.0213L55.9824 81.6704Z" fill="#2F2E41"/>
<path d="M38.1671 37.4733C39.3341 36.5375 40.6981 35.6765 42.1902 35.7249C43.6823 35.7732 45.1954 37.1278 44.8863 38.5959C47.6269 33.7182 51.9892 29.9667 57.2074 27.9998C62.4257 26.033 68.1664 25.9765 73.4219 27.8403C77.1304 29.1555 80.7671 31.7866 81.6189 35.6456C81.8376 36.6362 81.8846 37.7224 82.4999 38.5268C83.2757 39.541 84.7602 39.7705 85.9825 39.4137C85.9947 39.4101 86.0069 39.4065 86.0191 39.4028C86.2255 39.332 86.4484 39.325 86.6589 39.3828C86.8694 39.4407 87.0577 39.5607 87.1996 39.7273C87.3415 39.8939 87.4304 40.0995 87.4548 40.3174C87.4792 40.5354 87.4379 40.7557 87.3364 40.9498L86.2871 42.9169C87.6098 43.2133 88.9842 43.1839 90.2932 42.8313C90.5106 42.7739 90.7404 42.7857 90.9509 42.8648C91.1615 42.9439 91.3426 43.0866 91.4693 43.2732C91.596 43.4599 91.6621 43.6814 91.6587 43.9073C91.6552 44.1332 91.5823 44.3526 91.4499 44.5352C87.9899 49.3101 82.2095 52.3935 76.3107 52.3573C72.1182 52.3316 67.8826 50.8792 63.8023 51.8483C62.2238 52.2232 60.7489 52.9486 59.4857 53.9712C58.2224 54.9939 57.203 56.2878 56.5022 57.7581C55.8014 59.2284 55.4369 60.8378 55.4356 62.4682C55.4342 64.0985 55.796 65.7085 56.4944 67.18C55.241 65.8019 52.8179 66.1281 51.5357 67.4794C50.2535 68.8306 49.9216 70.8474 50.0508 72.7102C50.2483 75.5593 51.3589 78.244 52.5296 80.8569C42.714 80.5463 33.4301 73.6251 30.3052 64.2641C27.1671 54.8638 30.4559 43.6567 38.1671 37.4733Z" fill="#2F2E41"/>
<path opacity="0.2" d="M22.7109 129.266L29.1828 164.66L33.066 165L22.7109 129.266Z" fill="black"/>
<path opacity="0.2" d="M93.9957 126.596L87.5239 164.634L83.6406 165L93.9957 126.596Z" fill="black"/>
<path d="M43.6865 25.5612C42.4456 26.082 41.1508 25.5112 40.6078 24.204C40.0565 22.8768 40.5714 21.5296 41.8321 21.0004C43.093 20.4712 44.3648 21.0434 44.925 22.3919C45.4768 23.7203 44.9675 25.0235 43.6865 25.5612ZM41.3095 18.3881L40.3228 18.8022C40.0764 18.9045 39.8007 18.91 39.5504 18.8177C39.3 18.7254 39.0933 18.542 38.971 18.3038L38.9222 18.2079C37.8606 16.2834 37.739 13.9444 38.5628 11.2596C39.326 8.85118 39.643 7.15736 39.0055 5.62284C38.2685 3.84866 36.6947 3.29289 34.6877 4.09798C33.9094 4.42469 33.6617 4.41949 33.0491 5.0303C32.9159 5.16478 32.757 5.27092 32.5821 5.34237C32.4072 5.41383 32.2197 5.44914 32.0309 5.44621C31.8484 5.44405 31.6682 5.40496 31.501 5.33129C31.3339 5.25761 31.1832 5.15085 31.0579 5.01737C30.8167 4.76013 30.6815 4.42046 30.6797 4.06693C30.6779 3.7134 30.8097 3.37237 31.0484 3.1127C32.078 2.02931 33.3198 1.17222 34.6955 0.595497C39.0076 -1.21441 41.1783 1.45766 42.1717 3.84892C43.1433 6.18784 42.5967 8.35797 41.7185 11.1685C40.9826 13.5039 41.0255 15.2344 41.8615 16.955C41.9218 17.0851 41.9554 17.2261 41.9602 17.3695C41.965 17.513 41.9408 17.6559 41.8893 17.7898C41.8377 17.9236 41.7598 18.0456 41.6602 18.1485C41.5605 18.2513 41.4412 18.3328 41.3095 18.3881Z" fill="#3D8DFC"/>
<path d="M150.801 36.2941H129.844C129.778 36.2945 129.712 36.2818 129.65 36.2565C129.588 36.2312 129.532 36.1939 129.485 36.1467C129.438 36.0995 129.4 36.0435 129.375 35.9817C129.349 35.9199 129.336 35.8536 129.336 35.7867C129.336 35.7198 129.349 35.6535 129.375 35.5917C129.4 35.5299 129.438 35.4739 129.485 35.4267C129.532 35.3795 129.588 35.3422 129.65 35.3169C129.712 35.2916 129.778 35.2789 129.844 35.2793H150.801C150.934 35.2802 151.062 35.3341 151.155 35.4291C151.249 35.5242 151.302 35.6527 151.302 35.7867C151.302 35.9207 151.249 36.0492 151.155 36.1443C151.062 36.2393 150.934 36.2932 150.801 36.2941Z" fill="#3D8DFC"/>
<path d="M177.387 36.464H156.43C156.364 36.4645 156.298 36.4517 156.236 36.4264C156.174 36.4011 156.118 36.3638 156.071 36.3166C156.024 36.2695 155.986 36.2134 155.961 36.1516C155.935 36.0898 155.922 36.0235 155.922 35.9566C155.922 35.8897 155.935 35.8234 155.961 35.7616C155.986 35.6999 156.024 35.6438 156.071 35.5966C156.118 35.5495 156.174 35.5122 156.236 35.4869C156.298 35.4616 156.364 35.4488 156.43 35.4492H177.387C177.453 35.4488 177.519 35.4616 177.581 35.4869C177.643 35.5122 177.699 35.5495 177.746 35.5966C177.793 35.6438 177.831 35.6999 177.856 35.7616C177.882 35.8234 177.895 35.8897 177.895 35.9566C177.895 36.0235 177.882 36.0898 177.856 36.1516C177.831 36.2134 177.793 36.2695 177.746 36.3166C177.699 36.3638 177.643 36.4011 177.581 36.4264C177.519 36.4517 177.453 36.4645 177.387 36.464Z" fill="#3D8DFC"/>
<path d="M203.974 36.632H183.017C182.884 36.6311 182.756 36.5772 182.662 36.4821C182.568 36.3871 182.516 36.2586 182.516 36.1246C182.516 35.9906 182.568 35.8621 182.662 35.767C182.756 35.672 182.884 35.6181 183.017 35.6172H203.974C204.04 35.6167 204.106 35.6295 204.168 35.6548C204.229 35.6801 204.285 35.7174 204.333 35.7646C204.38 35.8117 204.417 35.8678 204.443 35.9296C204.469 35.9914 204.482 36.0577 204.482 36.1246C204.482 36.1915 204.469 36.2578 204.443 36.3196C204.417 36.3813 204.38 36.4374 204.333 36.4846C204.285 36.5318 204.229 36.5691 204.168 36.5944C204.106 36.6196 204.04 36.6324 203.974 36.632Z" fill="#3D8DFC"/>
<path d="M230.559 36.8019H209.603C209.47 36.801 209.342 36.7471 209.248 36.6521C209.154 36.557 209.102 36.4285 209.102 36.2945C209.102 36.1605 209.154 36.032 209.248 35.9369C209.342 35.8419 209.47 35.788 209.603 35.7871H230.559C230.693 35.788 230.82 35.8419 230.914 35.9369C231.008 36.032 231.061 36.1605 231.061 36.2945C231.061 36.4285 231.008 36.557 230.914 36.6521C230.82 36.7471 230.693 36.801 230.559 36.8019Z" fill="#3D8DFC"/>
<path d="M140.278 31.6252C142.429 31.6252 144.173 29.8723 144.173 27.7101C144.173 25.5478 142.429 23.7949 140.278 23.7949C138.127 23.7949 136.383 25.5478 136.383 27.7101C136.383 29.8723 138.127 31.6252 140.278 31.6252Z" fill="#3D8DFC"/>
<path d="M167.028 31.6252C169.179 31.6252 170.923 29.8723 170.923 27.7101C170.923 25.5478 169.179 23.7949 167.028 23.7949C164.877 23.7949 163.133 25.5478 163.133 27.7101C163.133 29.8723 164.877 31.6252 167.028 31.6252Z" fill="#3D8DFC"/>
<path d="M193.77 31.6252C195.921 31.6252 197.665 29.8723 197.665 27.7101C197.665 25.5478 195.921 23.7949 193.77 23.7949C191.619 23.7949 189.875 25.5478 189.875 27.7101C189.875 29.8723 191.619 31.6252 193.77 31.6252Z" fill="#3D8DFC"/>
<path d="M220.512 31.6252C222.663 31.6252 224.407 29.8723 224.407 27.7101C224.407 25.5478 222.663 23.7949 220.512 23.7949C218.361 23.7949 216.617 25.5478 216.617 27.7101C216.617 29.8723 218.361 31.6252 220.512 31.6252Z" fill="#3D8DFC"/>
</g>
<defs>
<clipPath id="clip0_17494_54565">
<rect width="247" height="165" fill="white"/>
</clipPath>
</defs>
</svg>
