<?xml version="1.0" encoding="UTF-8"?>
<svg id="_圖層_1" data-name="圖層 1" xmlns="http://www.w3.org/2000/svg" viewBox="0 0 282.1 90.65">
  <defs>
    <style>
      .cls-1 {
        fill: #0065ff;
        stroke-width: 0px;
      }
    </style>
  </defs>
  <g>
    <path class="cls-1" d="m109.3,67.85V21.85h9.2v18.8h1.9l14.4-18.8h7.7l-15.7,20.4,16.2,25.6h-10.9l-11.8-18.7h-1.9v18.7h-9.1Z"/>
    <path class="cls-1" d="m164.3,64.35c-1.1,1.4-2.3,2.5-3.9,3.2-1.5.7-3.2,1.1-5.2,1.1-3.1,0-5.8-1-8-2.9s-3.3-4.5-3.3-7.7c0-2.3.6-4.3,1.7-6s2.8-3.1,5.2-4.1c2.3-1,5.9-1.5,10.9-1.5h3.6v-1.6c0-1.8-.6-3.1-1.8-4-1.2-.9-3-1.3-5.5-1.3-3.3,0-7,1-11.1,2.9v-6.8c2.5-.9,4.8-1.5,7-1.8s4.1-.5,5.7-.5c2.9,0,5.4.3,7.5,1s3.9,1.9,5.2,3.5c1.4,1.7,2,4.6,2,8.8v11.5c0,1.3.1,2.1.2,2.4.1.4.4.6.7.8s.7.3,1.1.3c.3,0,.6,0,1.1-.2v6.1c-1.9.7-3.6,1-5.1,1-1.1,0-2-.1-2.9-.4s-1.7-.7-2.4-1.2c-.7-.5-1.4-1.4-2-2.7l-.7.1h0Zm.9-6.3v-5.5h-3.3c-3.7,0-6.1.5-7.2,1.6s-1.7,2.2-1.7,3.5c0,1.2.5,2.2,1.4,3s2,1.2,3.3,1.2c.9,0,2.1-.3,3.4-.9,1.3-.7,2.7-1.6,4.1-2.9Z"/>
    <path class="cls-1" d="m210,67.05c-3.7,1.1-6.9,1.6-9.7,1.6-2.4,0-4.6-.4-6.7-1.3-2-.8-3.6-2-4.6-3.4-1-1.5-1.5-3.6-1.5-6.6v-16.3h-7.3v-6.1h7.3v-8.4h9.2v8.4h12.5v6.1h-12.5v14.3c0,2.2.3,3.6.8,4.4.5.7,1.3,1.3,2.2,1.6.9.3,1.9.5,2.9.5,2.5,0,4.9-.5,7.3-1.5l.1,6.7h0Z"/>
    <path class="cls-1" d="m246.6,66.55c-5.3,1.5-9.9,2.2-13.9,2.2s-7.1-.7-10-2.1-5.1-3.5-6.6-6.2c-1.5-2.8-2.3-5.8-2.3-9.2s.7-6.4,2.2-9.2c1.5-2.8,3.6-5,6.3-6.4s5.8-2.2,9.2-2.2c4.6,0,8.3,1.5,11,4.5s4.1,7.1,4.1,12.4v3.4h-22.8c.3,2.7,1.4,4.8,3.5,6.1s4.6,2,7.6,2c3.5,0,7.4-.8,11.7-2.4v7.1h0Zm-23.1-19.1h14.2c0-5.3-2.2-8-6.7-8-2.1,0-3.9.7-5.2,2.1-1.3,1.5-2,3.4-2.3,5.9Z"/>
    <path class="cls-1" d="m254.1,67.85v-33.8h9.2l-.4,6.5h.4c1.2-2,2.4-3.4,3.6-4.4,1.2-.9,2.5-1.7,3.9-2.2s3-.8,4.9-.8c1.8,0,3.9.2,6.4.8v13.8h-6.2v-6.4c-.8,0-1.3-.1-1.7-.1-1.4,0-2.8.2-4,.7-1.3.5-2.5,1.2-3.6,2.1s-2.2,2.2-3.4,4v19.6h-9.1v.2Z"/>
  </g>
  <path class="cls-1" d="m.1,88.15c.3.9,1,1.7,1.8,2.1h0c.5.2.9.3,1.5.3.4,0,.9-.1,1.2-.2q.1,0,.2-.1c.1-.1.3-.1.4-.2,0,0,.1,0,.1-.1,2.3-1.4,8.1-5.5,10.9-12,1.5,1.4,3,2.8,4.7,4l-3.8,3.8c-.6.6-.9,1.4-.8,2.3.1,1.5,1.5,2.6,3,2.6h28.4c9,0,17.3-2.6,24.3-7.1,1.8-1.2,3.6-2.5,5.2-3.9,10.3-8.9,16.6-22.3,15.7-37.2C91.5,19.45,72.5.95,49.5.05c-4.1-.2-8.1.2-11.9,1.1-1.6.4-2.8,1.8-2.8,3.5,0,2,1.7,3.6,3.6,3.6.3,0,.5,0,.8-.1,3.9-.9,7.9-1.1,12.1-.8,18.2,1.7,32.8,16.5,34.3,34.8.8,10.4-2.5,19.9-8.4,27.3-1.6,1.9-3.3,3.7-5.2,5.3-2.9,2.4-6.1,4.4-9.7,5.8-3.5,1.5-7.3,2.4-11.3,2.8,5.5-4.1,9-10.6,9-17.9,0-11.8-9.2-21.5-20.9-22.3h-7c-.9,0-1.7-.8-1.7-1.7s.8-1.7,1.7-1.7c1.2,0,2.4-.2,3.5-.5,3.7-1.1,6.6-4,7.7-7.7.1-.3,0-.7-.3-.9-.9-.8-1.7-1.7-2.4-2.8,0-.4.1-.8.1-1.2,0-2.3-.6-4.4-1.7-6.3-.7-1.2-1.6-2.3-2.7-3.2-1.8-1.5-4.1-2.6-6.6-2.9V3.75C13.7,10.75,2.5,26.75,2.5,45.35c0,5,.8,9.7,2.3,14.2.3.9.6,1.7.9,2.6.7,2.2,1,4.6,1,7.1,0,4.3-3,10.8-4.4,13.7-.4.8-.9,1.4-1.5,2.1-.4.5-.7,1.1-.8,1.8h0v.4c0,.2.1.6.1.9H.1Z"/>
</svg>