<?xml version="1.0" encoding="utf-8"?>
<!-- Generator: Adobe Illustrator 25.2.0, SVG Export Plug-In . SVG Version: 6.00 Build 0)  -->
<svg version="1.1" id="圖層_1" xmlns="http://www.w3.org/2000/svg" xmlns:xlink="http://www.w3.org/1999/xlink" x="0px" y="0px"
	 viewBox="0 0 841.9 595.3" style="enable-background:new 0 0 841.9 595.3;" xml:space="preserve">
<style type="text/css">
	.st0{fill:#0065FF;}
</style>
<g>
	<g>
		<path class="st0" d="M389.2,320.2v-46h9.2v18.8h1.9l14.4-18.8h7.7l-15.7,20.4l16.2,25.6h-10.9l-11.8-18.7h-1.9v18.7H389.2z"/>
		<path class="st0" d="M444.2,316.7c-1.1,1.4-2.3,2.5-3.9,3.2c-1.5,0.7-3.2,1.1-5.2,1.1c-3.1,0-5.8-1-8-2.9
			c-2.2-1.9-3.3-4.5-3.3-7.7c0-2.3,0.6-4.3,1.7-6s2.8-3.1,5.2-4.1c2.3-1,5.9-1.5,10.9-1.5h3.6v-1.6c0-1.8-0.6-3.1-1.8-4
			c-1.2-0.9-3-1.3-5.5-1.3c-3.3,0-7,1-11.1,2.9V288c2.5-0.9,4.8-1.5,7-1.8c2.2-0.3,4.1-0.5,5.7-0.5c2.9,0,5.4,0.3,7.5,1
			c2.1,0.7,3.9,1.9,5.2,3.5c1.4,1.7,2,4.6,2,8.8v11.5c0,1.3,0.1,2.1,0.2,2.4c0.1,0.4,0.4,0.6,0.7,0.8s0.7,0.3,1.1,0.3
			c0.3,0,0.6,0,1.1-0.2v6.1c-1.9,0.7-3.6,1-5.1,1c-1.1,0-2-0.1-2.9-0.4s-1.7-0.7-2.4-1.2c-0.7-0.5-1.4-1.4-2-2.7L444.2,316.7
			L444.2,316.7z M445.1,310.4v-5.5h-3.3c-3.7,0-6.1,0.5-7.2,1.6c-1.1,1.1-1.7,2.2-1.7,3.5c0,1.2,0.5,2.2,1.4,3
			c0.9,0.8,2,1.2,3.3,1.2c0.9,0,2.1-0.3,3.4-0.9C442.3,312.6,443.7,311.7,445.1,310.4z"/>
		<path class="st0" d="M489.9,319.4c-3.7,1.1-6.9,1.6-9.7,1.6c-2.4,0-4.6-0.4-6.7-1.3c-2-0.8-3.6-2-4.6-3.4c-1-1.5-1.5-3.6-1.5-6.6
			v-16.3h-7.3v-6.1h7.3v-8.4h9.2v8.4h12.5v6.1h-12.5v14.3c0,2.2,0.3,3.6,0.8,4.4c0.5,0.7,1.3,1.3,2.2,1.6c0.9,0.3,1.9,0.5,2.9,0.5
			c2.5,0,4.9-0.5,7.3-1.5L489.9,319.4L489.9,319.4z"/>
		<path class="st0" d="M526.5,318.9c-5.3,1.5-9.9,2.2-13.9,2.2c-3.8,0-7.1-0.7-10-2.1s-5.1-3.5-6.6-6.2c-1.5-2.8-2.3-5.8-2.3-9.2
			c0-3.3,0.7-6.4,2.2-9.2c1.5-2.8,3.6-5,6.3-6.4s5.8-2.2,9.2-2.2c4.6,0,8.3,1.5,11,4.5c2.7,3,4.1,7.1,4.1,12.4v3.4h-22.8
			c0.3,2.7,1.4,4.8,3.5,6.1s4.6,2,7.6,2c3.5,0,7.4-0.8,11.7-2.4L526.5,318.9L526.5,318.9z M503.4,299.8h14.2c0-5.3-2.2-8-6.7-8
			c-2.1,0-3.9,0.7-5.2,2.1C504.4,295.4,503.7,297.3,503.4,299.8z"/>
		<path class="st0" d="M534,320.2v-33.8h9.2l-0.4,6.5h0.4c1.2-2,2.4-3.4,3.6-4.4c1.2-0.9,2.5-1.7,3.9-2.2c1.4-0.5,3-0.8,4.9-0.8
			c1.8,0,3.9,0.2,6.4,0.8v13.8h-6.2v-6.4c-0.8,0-1.3-0.1-1.7-0.1c-1.4,0-2.8,0.2-4,0.7c-1.3,0.5-2.5,1.2-3.6,2.1
			c-1.1,0.9-2.2,2.2-3.4,4v19.6H534z"/>
	</g>
	<path class="st0" d="M280,340.5c0.3,0.9,1,1.7,1.8,2.1c0,0,0,0,0,0c0.5,0.2,0.9,0.3,1.5,0.3c0.4,0,0.9-0.1,1.2-0.2
		c0.1,0,0.1,0,0.2-0.1c0.1-0.1,0.3-0.1,0.4-0.2c0,0,0.1,0,0.1-0.1c2.3-1.4,8.1-5.5,10.9-12c1.5,1.4,3,2.8,4.7,4l-3.8,3.8
		c-0.6,0.6-0.9,1.4-0.8,2.3c0.1,1.5,1.5,2.6,3,2.6h28.4c9,0,17.3-2.6,24.3-7.1c1.8-1.2,3.6-2.5,5.2-3.9
		c10.3-8.9,16.6-22.3,15.7-37.2c-1.4-23-20.4-41.5-43.4-42.4c-4.1-0.2-8.1,0.2-11.9,1.1c-1.6,0.4-2.8,1.8-2.8,3.5
		c0,2,1.7,3.6,3.6,3.6c0.3,0,0.5,0,0.8-0.1c3.9-0.9,7.9-1.1,12.1-0.8c18.2,1.7,32.8,16.5,34.3,34.8c0.8,10.4-2.5,19.9-8.4,27.3
		c-1.6,1.9-3.3,3.7-5.2,5.3c-2.9,2.4-6.1,4.4-9.7,5.8c-3.5,1.5-7.3,2.4-11.3,2.8c5.5-4.1,9-10.6,9-17.9c0-11.8-9.2-21.5-20.9-22.3
		c-0.4,0-0.8,0-1.1,0v0H312c-0.9,0-1.7-0.8-1.7-1.7c0-0.9,0.8-1.7,1.7-1.7c1.2,0,2.4-0.2,3.5-0.5c3.7-1.1,6.6-4,7.7-7.7
		c0.1-0.3,0-0.7-0.3-0.9c-0.9-0.8-1.7-1.7-2.4-2.8c0-0.4,0.1-0.8,0.1-1.2c0-2.3-0.6-4.4-1.7-6.3c-0.7-1.2-1.6-2.3-2.7-3.2
		c-1.8-1.5-4.1-2.6-6.6-2.9v-10.5c-16,7-27.2,23-27.2,41.6c0,5,0.8,9.7,2.3,14.2c0.3,0.9,0.6,1.7,0.9,2.6c0.7,2.2,1,4.6,1,7.1
		c0,4.3-3,10.8-4.4,13.7c-0.4,0.8-0.9,1.4-1.5,2.1c-0.4,0.5-0.7,1.1-0.8,1.8c0,0,0,0,0,0c0,0.1,0,0.2,0,0.4
		C279.9,339.8,280,340.2,280,340.5C280,340.5,280,340.5,280,340.5z"/>
</g>
</svg>
