<svg width="40" height="40" viewBox="0 0 40 40" fill="none" xmlns="http://www.w3.org/2000/svg">
  <path d="M20 0C8.954 0 0 8.954 0 20s8.954 20 20 20 20-8.954 20-20S31.046 0 20 0zm0 36c-8.837 0-16-7.163-16-16S11.163 4 20 4s16 7.163 16 16-7.163 16-16 16z" fill="#0066FF"/>
  <path d="M28.707 12.293a1 1 0 0 0-1.414 0L20 19.586l-7.293-7.293a1 1 0 1 0-1.414 1.414L18.586 21l-7.293 7.293a1 1 0 1 0 1.414 1.414L20 22.414l7.293 7.293a1 1 0 0 0 1.414-1.414L21.414 21l7.293-7.293a1 1 0 0 0 0-1.414z" fill="#0066FF"/>
</svg>
